<?xml version="1.0" encoding="UTF-8"?><svg xmlns="http://www.w3.org/2000/svg" xmlns:xlink="http://www.w3.org/1999/xlink" fill-opacity="1" color-rendering="auto" color-interpolation="auto" text-rendering="auto" stroke="black" stroke-linecap="square" width="648" stroke-miterlimit="10" shape-rendering="auto" stroke-opacity="1" fill="black" stroke-dasharray="none" font-weight="normal" stroke-width="1" height="297" font-family="'Dialog'" font-style="normal" stroke-linejoin="miter" font-size="12px" stroke-dashoffset="0" image-rendering="auto">
  <!--Generated by ySVG 2.5-->
  <defs id="genericDefs"/>
  <g>
    <defs id="defs1">
      <clipPath clipPathUnits="userSpaceOnUse" id="clipPath1">
        <path d="M0 0 L648 0 L648 297 L0 297 L0 0 Z"/>
      </clipPath>
      <clipPath clipPathUnits="userSpaceOnUse" id="clipPath2">
        <path d="M61 88 L709 88 L709 385 L61 385 L61 88 Z"/>
      </clipPath>
    </defs>
    <g fill="white" text-rendering="geometricPrecision" shape-rendering="geometricPrecision" transform="translate(-61,-88)" stroke="white">
      <rect x="61" width="648" height="297" y="88" clip-path="url(#clipPath2)" stroke="none"/>
    </g>
    <g fill="rgb(255,204,0)" text-rendering="geometricPrecision" shape-rendering="geometricPrecision" transform="matrix(1,0,0,1,-61,-88)" stroke="rgb(255,204,0)">
      <rect x="317" width="100" height="43" y="200" clip-path="url(#clipPath2)" stroke="none"/>
    </g>
    <g text-rendering="geometricPrecision" stroke-miterlimit="1.45" shape-rendering="geometricPrecision" transform="matrix(1,0,0,1,-61,-88)" stroke-linecap="butt">
      <rect fill="none" x="317" width="100" height="43" y="200" clip-path="url(#clipPath2)"/>
      <text x="337.9844" xml:space="preserve" y="226.0352" clip-path="url(#clipPath2)" font-family="sans-serif" stroke="none">API Server</text>
    </g>
    <g fill="rgb(153,204,255)" text-rendering="geometricPrecision" shape-rendering="geometricPrecision" transform="matrix(1,0,0,1,-61,-88)" stroke="rgb(153,204,255)">
      <rect x="545.7348" width="128" height="30" y="144" clip-path="url(#clipPath2)" stroke="none"/>
    </g>
    <g text-rendering="geometricPrecision" stroke-miterlimit="1.45" shape-rendering="geometricPrecision" transform="matrix(1,0,0,1,-61,-88)" stroke-linecap="butt">
      <rect fill="none" x="545.7348" width="128" height="30" y="144" clip-path="url(#clipPath2)"/>
      <text x="564.3159" xml:space="preserve" y="163.5352" clip-path="url(#clipPath2)" font-family="sans-serif" stroke="none">Client Web-app</text>
    </g>
    <g fill="rgb(255,153,0)" text-rendering="geometricPrecision" shape-rendering="geometricPrecision" transform="matrix(1,0,0,1,-61,-88)" stroke="rgb(255,153,0)">
      <rect x="161.673" width="91.0433" height="30" y="98.421" clip-path="url(#clipPath2)" stroke="none"/>
    </g>
    <g text-rendering="geometricPrecision" stroke-miterlimit="1.45" shape-rendering="geometricPrecision" transform="matrix(1,0,0,1,-61,-88)" stroke-linecap="butt">
      <rect fill="none" x="161.673" width="91.0433" height="30" y="98.421" clip-path="url(#clipPath2)"/>
      <text x="179.471" xml:space="preserve" y="117.9561" clip-path="url(#clipPath2)" font-family="sans-serif" stroke="none">Simulator</text>
    </g>
    <g fill="rgb(153,204,255)" text-rendering="geometricPrecision" shape-rendering="geometricPrecision" transform="matrix(1,0,0,1,-61,-88)" stroke="rgb(153,204,255)">
      <rect x="570.7348" width="128" height="30" y="206.5" clip-path="url(#clipPath2)" stroke="none"/>
    </g>
    <g text-rendering="geometricPrecision" stroke-miterlimit="1.45" shape-rendering="geometricPrecision" transform="matrix(1,0,0,1,-61,-88)" stroke-linecap="butt">
      <rect fill="none" x="570.7348" width="128" height="30" y="206.5" clip-path="url(#clipPath2)"/>
      <text x="589.3159" xml:space="preserve" y="226.0352" clip-path="url(#clipPath2)" font-family="sans-serif" stroke="none">Client Web-app</text>
    </g>
    <g fill="rgb(153,204,255)" text-rendering="geometricPrecision" shape-rendering="geometricPrecision" transform="matrix(1,0,0,1,-61,-88)" stroke="rgb(153,204,255)">
      <rect x="545.7348" width="128" height="30" y="282" clip-path="url(#clipPath2)" stroke="none"/>
    </g>
    <g text-rendering="geometricPrecision" stroke-miterlimit="1.45" shape-rendering="geometricPrecision" transform="matrix(1,0,0,1,-61,-88)" stroke-linecap="butt">
      <rect fill="none" x="545.7348" width="128" height="30" y="282" clip-path="url(#clipPath2)"/>
      <text x="564.3159" xml:space="preserve" y="301.5352" clip-path="url(#clipPath2)" font-family="sans-serif" stroke="none">Client Web-app</text>
    </g>
    <g fill="aqua" text-rendering="geometricPrecision" shape-rendering="geometricPrecision" transform="matrix(1,0,0,1,-61,-88)" stroke="aqua">
      <rect x="71.5612" width="72.654" height="30" y="180.4548" clip-path="url(#clipPath2)" stroke="none"/>
    </g>
    <g text-rendering="geometricPrecision" stroke-miterlimit="1.45" shape-rendering="geometricPrecision" transform="matrix(1,0,0,1,-61,-88)" stroke-linecap="butt">
      <rect fill="none" x="71.5612" width="72.654" height="30" y="180.4548" clip-path="url(#clipPath2)"/>
      <text x="88.3912" xml:space="preserve" y="199.99" clip-path="url(#clipPath2)" font-family="sans-serif" stroke="none">Sensor</text>
    </g>
    <g fill="aqua" text-rendering="geometricPrecision" shape-rendering="geometricPrecision" transform="matrix(1,0,0,1,-61,-88)" stroke="aqua">
      <rect x="90.6111" width="72.654" height="30" y="221.4718" clip-path="url(#clipPath2)" stroke="none"/>
    </g>
    <g text-rendering="geometricPrecision" stroke-miterlimit="1.45" shape-rendering="geometricPrecision" transform="matrix(1,0,0,1,-61,-88)" stroke-linecap="butt">
      <rect fill="none" x="90.6111" width="72.654" height="30" y="221.4718" clip-path="url(#clipPath2)"/>
      <text x="107.4411" xml:space="preserve" y="241.0069" clip-path="url(#clipPath2)" font-family="sans-serif" stroke="none">Sensor</text>
    </g>
    <g fill="aqua" text-rendering="geometricPrecision" shape-rendering="geometricPrecision" transform="matrix(1,0,0,1,-61,-88)" stroke="aqua">
      <rect x="114.3584" width="72.654" height="30" y="262.4887" clip-path="url(#clipPath2)" stroke="none"/>
    </g>
    <g text-rendering="geometricPrecision" stroke-miterlimit="1.45" shape-rendering="geometricPrecision" transform="matrix(1,0,0,1,-61,-88)" stroke-linecap="butt">
      <rect fill="none" x="114.3584" width="72.654" height="30" y="262.4887" clip-path="url(#clipPath2)"/>
      <text x="131.1884" xml:space="preserve" y="282.0239" clip-path="url(#clipPath2)" font-family="sans-serif" stroke="none">Sensor</text>
    </g>
    <g fill="aqua" text-rendering="geometricPrecision" shape-rendering="geometricPrecision" transform="matrix(1,0,0,1,-61,-88)" stroke="aqua">
      <rect x="152.3893" width="72.654" height="30" y="303.5056" clip-path="url(#clipPath2)" stroke="none"/>
    </g>
    <g text-rendering="geometricPrecision" stroke-miterlimit="1.45" shape-rendering="geometricPrecision" transform="matrix(1,0,0,1,-61,-88)" stroke-linecap="butt">
      <rect fill="none" x="152.3893" width="72.654" height="30" y="303.5056" clip-path="url(#clipPath2)"/>
      <text x="169.2192" xml:space="preserve" y="323.0408" clip-path="url(#clipPath2)" font-family="sans-serif" stroke="none">Sensor</text>
    </g>
    <g fill="aqua" text-rendering="geometricPrecision" shape-rendering="geometricPrecision" transform="matrix(1,0,0,1,-61,-88)" stroke="aqua">
      <rect x="297.9622" width="72.654" height="30" y="344.5226" clip-path="url(#clipPath2)" stroke="none"/>
    </g>
    <g text-rendering="geometricPrecision" stroke-miterlimit="1.45" shape-rendering="geometricPrecision" transform="matrix(1,0,0,1,-61,-88)" stroke-linecap="butt">
      <rect fill="none" x="297.9622" width="72.654" height="30" y="344.5226" clip-path="url(#clipPath2)"/>
      <text x="314.7922" xml:space="preserve" y="364.0577" clip-path="url(#clipPath2)" font-family="sans-serif" stroke="none">Sensor</text>
    </g>
    <g fill="aqua" text-rendering="geometricPrecision" shape-rendering="geometricPrecision" transform="matrix(1,0,0,1,-61,-88)" stroke="aqua">
      <rect x="206.3202" width="72.654" height="30" y="344.5226" clip-path="url(#clipPath2)" stroke="none"/>
    </g>
    <g text-rendering="geometricPrecision" stroke-miterlimit="1.45" shape-rendering="geometricPrecision" transform="matrix(1,0,0,1,-61,-88)" stroke-linecap="butt">
      <rect fill="none" x="206.3202" width="72.654" height="30" y="344.5226" clip-path="url(#clipPath2)"/>
      <text x="223.1502" xml:space="preserve" y="364.0577" clip-path="url(#clipPath2)" font-family="sans-serif" stroke="none">Sensor</text>
    </g>
    <g fill="lime" text-rendering="geometricPrecision" shape-rendering="geometricPrecision" transform="matrix(1,0,0,1,-61,-88)" stroke="lime">
      <rect x="321.4783" width="91.0433" height="30" y="98.421" clip-path="url(#clipPath2)" stroke="none"/>
    </g>
    <g text-rendering="geometricPrecision" stroke-miterlimit="1.45" shape-rendering="geometricPrecision" transform="matrix(1,0,0,1,-61,-88)" stroke-linecap="butt">
      <rect fill="none" x="321.4783" width="91.0433" height="30" y="98.421" clip-path="url(#clipPath2)"/>
      <text x="339.0508" xml:space="preserve" y="117.9561" clip-path="url(#clipPath2)" font-family="sans-serif" stroke="none">MongoDB</text>
      <path fill="none" d="M417 208.6259 L543.7311 175.9948" clip-path="url(#clipPath2)"/>
      <path d="M551.4785 174 L538.6107 172.1501 L542.7628 176.2441 L541.1042 181.8343 Z" clip-path="url(#clipPath2)" stroke="none"/>
      <path fill="none" d="M551.4785 174 L424.7473 206.6311" clip-path="url(#clipPath2)"/>
      <path d="M417 208.6259 L429.8677 210.4757 L425.7157 206.3817 L427.3742 200.7916 Z" clip-path="url(#clipPath2)" stroke="none"/>
      <text x="457.3244" xml:space="preserve" y="165.0461" clip-path="url(#clipPath2)" font-family="sans-serif" stroke="none">socket.io</text>
      <path fill="none" d="M229.3736 128.421 L328.5834 195.5182" clip-path="url(#clipPath2)"/>
      <path d="M335.2101 200 L328.0711 189.1356 L327.7551 194.958 L322.4689 197.419 Z" clip-path="url(#clipPath2)" stroke="none"/>
      <path fill="none" d="M417 221.5 L562.7349 221.5" clip-path="url(#clipPath2)"/>
      <path d="M570.7349 221.5 L558.7349 216.5 L561.7349 221.5 L558.7349 226.5 Z" clip-path="url(#clipPath2)" stroke="none"/>
      <path fill="none" d="M417 221.5 L562.7349 221.5" clip-path="url(#clipPath2)"/>
      <path d="M570.7349 221.5 L558.7349 216.5 L561.7349 221.5 L558.7349 226.5 Z" clip-path="url(#clipPath2)" stroke="none"/>
      <path fill="none" d="M417 221.5 L562.7349 221.5" clip-path="url(#clipPath2)"/>
      <path d="M570.7349 221.5 L558.7349 216.5 L561.7349 221.5 L558.7349 226.5 Z" clip-path="url(#clipPath2)" stroke="none"/>
      <path fill="none" d="M570.7349 221.5 L425 221.5" clip-path="url(#clipPath2)"/>
      <path d="M417 221.5 L429 226.5 L426 221.5 L429 216.5 Z" clip-path="url(#clipPath2)" stroke="none"/>
      <path fill="none" d="M417 237.052 L553.8704 279.624" clip-path="url(#clipPath2)"/>
      <path d="M561.5094 282 L551.5359 273.6616 L552.9155 279.327 L548.5659 283.2103 Z" clip-path="url(#clipPath2)" stroke="none"/>
      <path fill="none" d="M561.5094 282 L424.639 239.428" clip-path="url(#clipPath2)"/>
      <path d="M417 237.052 L426.9735 245.3904 L425.5939 239.725 L429.9435 235.8416 Z" clip-path="url(#clipPath2)" stroke="none"/>
      <path fill="none" d="M561.5094 282 L424.639 239.428" clip-path="url(#clipPath2)"/>
      <path d="M417 237.052 L426.9735 245.3904 L425.5939 239.725 L429.9435 235.8416 Z" clip-path="url(#clipPath2)" stroke="none"/>
      <path fill="none" d="M144.2153 199.1063 L309.0401 215.674" clip-path="url(#clipPath2)"/>
      <path d="M317 216.4742 L305.5602 210.2991 L308.0451 215.574 L304.5601 220.2489 Z" clip-path="url(#clipPath2)" stroke="none"/>
      <text x="185.4787" xml:space="preserve" y="182.1742" clip-path="url(#clipPath2)" font-family="sans-serif" stroke="none">axios / express</text>
      <path fill="none" d="M163.2652 234.2062 L309.0155 225.1163" clip-path="url(#clipPath2)"/>
      <path d="M317 224.6183 L304.712 220.375 L308.0175 225.1785 L305.3345 230.3556 Z" clip-path="url(#clipPath2)" stroke="none"/>
      <path fill="none" d="M187.0125 268.0862 L309.2552 236.4461" clip-path="url(#clipPath2)"/>
      <path d="M317 234.4415 L304.13 232.6079 L308.2871 236.6967 L306.6357 242.2889 Z" clip-path="url(#clipPath2)" stroke="none"/>
      <path fill="none" d="M216.2843 303.5056 L320.4587 246.8235" clip-path="url(#clipPath2)"/>
      <path d="M327.4858 243 L314.5554 244.3433 L319.5803 247.3015 L319.3348 253.1272 Z" clip-path="url(#clipPath2)" stroke="none"/>
      <path fill="none" d="M337.8442 344.5226 L360.0597 250.7844" clip-path="url(#clipPath2)"/>
      <path d="M361.9046 243 L354.2721 253.5235 L359.8291 251.7574 L364.0025 255.8296 Z" clip-path="url(#clipPath2)" stroke="none"/>
      <path fill="none" d="M256.1617 344.5226 L342.2745 248.9435" clip-path="url(#clipPath2)"/>
      <path d="M347.6294 243 L335.8824 248.5685 L341.6051 249.6865 L343.3118 255.2621 Z" clip-path="url(#clipPath2)" stroke="none"/>
      <path fill="none" d="M367 200 L367 136.421" clip-path="url(#clipPath2)"/>
      <path d="M367 128.421 L362 140.421 L367 137.421 L372 140.421 Z" clip-path="url(#clipPath2)" stroke="none"/>
      <path fill="none" d="M367 128.421 L367 192" clip-path="url(#clipPath2)"/>
      <path d="M367 200 L372 188 L367 191 L362 188 Z" clip-path="url(#clipPath2)" stroke="none"/>
    </g>
  </g>
</svg>
