<svg xmlns="http://www.w3.org/2000/svg" xmlns:xlink="http://www.w3.org/1999/xlink" version="1.1" x="0px" y="0px" viewBox="0 0 100 125" enable-background="new 0 0 100 100" xml:space="preserve"><path d="M50.003,74.688c-5.959,0-10.806-4.081-10.806-9.097c0-3.663-3.834-9.786-8.375-13.372  c-0.337-0.264-8.231-6.636-8.231-18.281c0-15.115,12.297-27.412,27.412-27.412c15.11,0,27.404,12.296,27.404,27.412  c0,11.646-7.889,18.014-8.225,18.278c-4.539,3.588-8.373,9.712-8.373,13.375C60.811,70.606,55.962,74.688,50.003,74.688z   M50.004,9.683c-13.375,0-24.255,10.88-24.255,24.255c0,10.071,6.963,15.75,7.033,15.808c5.366,4.239,9.572,11.199,9.572,15.845  c0,3.22,3.502,5.94,7.649,5.94s7.65-2.721,7.65-5.94c0-4.646,4.205-11.609,9.574-15.85c0.067-0.054,7.025-5.731,7.025-15.803  C74.253,20.563,63.374,9.683,50.004,9.683z"/><path d="M57.449,94.467c-0.512,0-1.023-0.195-1.414-0.586L41.327,79.173c-0.781-0.781-0.781-2.047,0-2.828  c0.78-0.781,2.047-0.781,2.828,0l14.708,14.708c0.781,0.781,0.781,2.047,0,2.828C58.473,94.271,57.961,94.467,57.449,94.467z"/><path d="M57.449,83.999c-0.512,0-1.023-0.195-1.414-0.586l-4.241-4.24c-0.781-0.78-0.781-2.047,0-2.828s2.047-0.781,2.828,0  l4.241,4.24c0.781,0.78,0.781,2.047,0,2.828C58.473,83.804,57.961,83.999,57.449,83.999z"/><path d="M46.982,94.467c-0.512,0-1.023-0.195-1.414-0.586l-4.242-4.241c-0.781-0.781-0.781-2.047,0-2.828  c0.78-0.781,2.047-0.781,2.828,0l4.242,4.241c0.781,0.781,0.781,2.047,0,2.828C48.006,94.271,47.494,94.467,46.982,94.467z"/><polygon points="54.12,34.05 63.83,43.76 59.59,48 49.89,38.29 40.18,48 35.94,43.76 45.65,34.05 35.94,24.34 40.18,20.1   49.89,29.81 59.59,20.1 63.83,24.34 "/><text x="0" y="115" fill="#000000" font-size="5px" font-weight="bold" font-family="'Helvetica Neue', Helvetica, Arial-Unicode, Arial, Sans-serif">Created by Dan Hetteix</text><text x="0" y="120" fill="#000000" font-size="5px" font-weight="bold" font-family="'Helvetica Neue', Helvetica, Arial-Unicode, Arial, Sans-serif">from the Noun Project</text></svg>